
  <svg id="Layer_1" data-name="Layer 1" xmlns="http://www.w3.org/2000/svg" viewBox="0 0 227.61 228.7">
    <defs>
      <mask id="logo-mask">
        <g>
          <defs>
            <style>
              .cls-1 {
                fill: #fff;
              }
            </style>
          </defs>
          <path class="cls-1" d="M215.67,147.15l-26.78-39.81a4.42,4.42,0,0,1-.42-4.14l18.27-44.8a4.46,4.46,0,0,0-5.41-5.94L154.44,65.82a4.55,4.55,0,0,1-4.13-.84L113.08,34.5a4.58,4.58,0,0,0-7.44,3.32l-2.2,48.07a4.58,4.58,0,0,1-2.13,3.63L60,115.47a4.45,4.45,0,0,0,.8,8l45.54,16.35a4.42,4.42,0,0,1,2.8,3.08l11.72,46.53a4.53,4.53,0,0,0,8,1.61l30.34-38a4.58,4.58,0,0,1,3.86-1.72l48.52,2.79A4.53,4.53,0,0,0,215.67,147.15ZM125.34,177l-10.08-39.73a3.4,3.4,0,0,0-2.13-2.38L74.69,120.63a3.44,3.44,0,0,1-.64-6.13l34.67-21.86a3.42,3.42,0,0,0,1.6-2.76L112,48.93a3.43,3.43,0,0,1,3.6-3.29l1,9.81L119,78.72,124,125.26l5.26,46.51.85,7.48A3.43,3.43,0,0,1,125.34,177Zm3.27-102.1c-1.2-6.51-2.51-13-4-19.49l-.44-3.47L149.1,72.65a3.42,3.42,0,0,0,3.12.66L182,65l-49,38.82Q131.19,89.28,128.61,74.86Zm31.08,69.92a3.43,3.43,0,0,0-2.92,1.3l-17.84,22.58-1.62-12.81q-.7-19.14-2.69-38.14l44.68,28.36Zm40.89,2.7-8-.53L135,110.37,194.82,62.9a3.4,3.4,0,0,1,1,3.9l-15.2,38.07a3.43,3.43,0,0,0,.33,3.18l22.74,34.1A3.44,3.44,0,0,1,200.58,147.48Z" transform="translate(-57.89 -33.48)"/>
        </g>
      </mask>
    </defs>

    <style>
      @keyframes logo-ani {
        from {
          stroke-dashoffset: 1203;
        }

        to {
          stroke-dashoffset: 0;
        }
      }
      @keyframes mask-ani {
        from {
          stroke-dashoffset: 164;
        }

        to {
          stroke-dashoffset: 0;
        }
      }

      .cls-1 { 
        fill: #fff;
      }

      .cls-2 {
        fill: none;
        stroke: rgb(211, 175, 56);
        stroke-linecap: round;
        stroke-linejoin: round;
        stroke-width: 30px;
        stroke-dasharray: 164;
        stroke-dashoffset: 0;
        animation: mask-ani 4s linear infinite;
      }

      .cls-3 {
        fill: none;
        stroke: rgb(211, 175, 56);
        stroke-linecap: round;
        stroke-linejoin: round;
        stroke-width: 28px;
        stroke-dasharray: 1203;
        stroke-dashoffset: 0;
        animation: logo-ani 4s linear infinite;
      }
    </style>

    <!-- 마스크 영역을 적용할 빨간 패스부분임 -->
    <g mask="url(#logo-mask)">
      <defs>
        <style>
          .cls-1 {
            fill: #fff;
          }
        </style>
      </defs>

      <path class="cls-3" d="M194.15,51.36c-5.92,2-11.91,3.81-18,5.26-3,.71-6.87,2.39-9.76.79s-5.66-4.89-8.19-7.08L127.67,24a4.54,4.54,0,0,0-7.52,4.38l2.24,10.09L130.62,35l-2.76-4.82a4.55,4.55,0,0,0-8.22,1.08c-1.92,7.47-.47,15.75-.85,23.41-.19,3.9-.51,7.79-.89,11.67-.42,4.39-.4,9.36-1.77,13.59-2.25,7-10.78,9.07-16.81,11.65a131.24,131.24,0,0,0-20.45,10.94c-4.43,2.92-9.87,7.65-4.78,12.91,3.93,4.06,11.61,3.95,16.79,5.07,14.16,3.07,26.79,8.27,33.35,22.06,3.5,7.34,5,15.52,6.37,23.47,1,5.8,1,15,6.86,18.2,11.93,6.51,22.29-13.4,26-21.55,1.35-3,2.61-6,4-8.91s2.9-7.79,6-9,8,1.36,11,2.18q6.34,1.71,12.77,3.07a224.77,224.77,0,0,0,24.35,3.9c6,.6,11.53-2.58,9.31-9.41-1.32-4.06-4.15-7.94-6.22-11.67L217.56,120l-7.09-12.82-3.31-6c-1-1.89-3.22-4.55-3.19-6.78.05-3.11,3.3-7.4,4.77-10.06,1.93-3.5,3.95-7,5.75-10.53,3.52-7,6-14.26,5.86-22.18-.07-3.13-2.8-4.85-5.7-4.34a90.06,90.06,0,0,0-17,4.78c-5.34,2.08-3,10.79,2.39,8.68A90.16,90.16,0,0,1,217.05,56l-5.7-4.34c.22,8.84-3.84,16.44-8,24-3.26,5.85-9.39,13.8-8.13,20.89.7,3.94,3.24,7.51,5.15,11l7.56,13.66,7.56,13.67c.72,1.31,7.26,11.42,6.86,12.06l2.69-2.07c-2.53,1-7.16-.32-9.71-.68s-5-.74-7.42-1.18q-9.24-1.62-18.34-4c-8.93-2.31-18.38-7-25.19,1.84-5.71,7.42-7.95,17.22-12.67,25.27-1.48,2.51-5.45,9.47-8.79,9.79-1.6.15-1.15.07-1.69-1.76a35.88,35.88,0,0,1-.74-3.8c-.59-3.17-1.1-6.36-1.69-9.53-1.91-10.31-4.56-20.86-10.74-29.52-5.21-7.3-12.44-12.21-20.73-15.43A89.88,89.88,0,0,0,94,112c-2.27-.5-4.55-.95-6.84-1.4-1.26-.24-2.52-.46-3.78-.72-.89-.19-3.55-1.46-2,.42,1.26,1.55,1.9.07,3.53-1,1-.64,2-1.27,3-1.88q3.45-2.07,7-3.91c4.77-2.47,9.72-4.41,14.64-6.54,4.5-2,8.91-4.35,12-8.29,3.53-4.54,4-10,4.61-15.56.7-6.47,1.36-12.94,1.64-19.44s-1.13-13.8.48-20.05l-8.23,1.08,2.76,4.81c2.59,4.54,9.31,1.43,8.22-3.47l-2.24-10.1-7.52,4.38,36.48,31.52c2.15,1.87,4.28,4.07,7.05,5,3,1,6.12.14,9.13-.49A191.59,191.59,0,0,0,196.54,60c5.45-1.86,3.11-10.56-2.39-8.67Z" transform="translate(-72.04 -22.75)"/>
      <path class="cls-2" d="M125.89,36.71c6.63,20.62,5.43,42.84,12.73,63.29,2.36,6.62,13,3.77,10.61-2.92-7.3-20.45-6.1-42.67-12.73-63.29-2.16-6.71-12.79-3.84-10.61,2.92Z" transform="translate(-72.04 -22.75)"/>
      <path class="cls-2" d="M200.39,53.19c-8.26,8.67-20.57,13-30.18,20.06-10.44,7.65-19.93,16.44-29.36,25.26-5.18,4.85,2.61,12.61,7.78,7.78,9.6-9,19.21-18.06,30-25.6,9.68-6.76,21.29-11.07,29.53-19.72,4.88-5.13-2.89-12.92-7.78-7.78Z" transform="translate(-72.04 -22.75)"/>
      <path class="cls-2" d="M212.28,139.43c-6.52-1-12.58-4.45-18.31-7.55a172.29,172.29,0,0,1-17.33-10.73c-10.39-7.31-19.24-17.91-31.07-22.91-6.44-2.72-12,6.75-5.55,9.5,6.2,2.62,11.07,6.85,16.12,11.2a192.07,192.07,0,0,0,16.4,12.72,172.54,172.54,0,0,0,18.22,11c5.82,3,12.05,6.44,18.6,7.41,6.92,1,9.91-9.58,2.92-10.61Z" transform="translate(-72.04 -22.75)"/>
      <path class="cls-2" d="M154.33,169.84a178.17,178.17,0,0,1-4.34-39.6c0-6.12.75-12.34.1-18.43s-2.84-11.89-5.18-17.61c-2.66-6.46-13.3-3.63-10.61,2.92,2.28,5.56,4.71,11.27,5,17.34.32,6.52-.4,13.1-.28,19.63a191.52,191.52,0,0,0,4.71,38.68c1.57,6.9,12.18,4,10.6-2.93Z" transform="translate(-72.04 -22.75)"/>
      </g>
  </svg>
